<?xml version="1.0" encoding="UTF-8" standalone="no"?>
<!-- Created with Inkscape (http://www.inkscape.org/) -->

<svg
   xmlns:dc="http://purl.org/dc/elements/1.1/"
   xmlns:cc="http://creativecommons.org/ns#"
   xmlns:rdf="http://www.w3.org/1999/02/22-rdf-syntax-ns#"
   xmlns:svg="http://www.w3.org/2000/svg"
   xmlns="http://www.w3.org/2000/svg"
   xmlns:sodipodi="http://sodipodi.sourceforge.net/DTD/sodipodi-0.dtd"
   xmlns:inkscape="http://www.inkscape.org/namespaces/inkscape"
   width="60"
   height="90"
   viewBox="0 0 15.875 23.8125"
   version="1.1"
   id="svg8"
   sodipodi:docname="clubs.svg"
   inkscape:version="0.92.4 (5da689c313, 2019-01-14)">
  <defs
     id="defs2" />
  <sodipodi:namedview
     id="base"
     pagecolor="#ffffff"
     bordercolor="#666666"
     borderopacity="1.0"
     inkscape:pageopacity="0.0"
     inkscape:pageshadow="2"
     inkscape:zoom="5.6568543"
     inkscape:cx="18.143466"
     inkscape:cy="72.353638"
     inkscape:document-units="px"
     inkscape:current-layer="layer1"
     showgrid="false"
     units="px"
     inkscape:window-width="1920"
     inkscape:window-height="1137"
     inkscape:window-x="1272"
     inkscape:window-y="-8"
     inkscape:window-maximized="1"
     showguides="false"
     inkscape:snap-bbox="true"
     inkscape:bbox-nodes="true"
     inkscape:snap-bbox-edge-midpoints="true"
     inkscape:snap-bbox-midpoints="true" />
  <metadata
     id="metadata5">
    <rdf:RDF>
      <cc:Work
         rdf:about="">
        <dc:format>image/svg+xml</dc:format>
        <dc:type
           rdf:resource="http://purl.org/dc/dcmitype/StillImage" />
        <dc:title></dc:title>
      </cc:Work>
    </rdf:RDF>
  </metadata>
  <g
     inkscape:label="playing card"
     id="layer1"
     transform="translate(0,-273.1875)">
    <path
       inkscape:label="suit"
       inkscape:connector-curvature="0"
       id="suit"
       d="m 7.9374914,280.33134 a 2.1911321,2.1911321 0 0 0 -2.1915122,2.19153 2.1911321,2.1911321 0 0 0 0.875129,1.74812 2.1911321,2.1911321 0 0 0 -0.875129,-0.1833 2.1911321,2.1911321 0 0 0 -2.1909816,2.19153 2.1911321,2.1911321 0 0 0 2.1909816,2.19041 2.1911321,2.1911321 0 0 0 1.4082267,-0.51249 l -0.065431,0.4671 -1.3422469,1.43201 2.1904534,-0.2379 2.1915126,0.2379 -1.3707496,-1.47104 -0.06123,-0.4518 a 2.1911321,2.1911321 0 0 0 1.4319776,0.53622 2.1911321,2.1911321 0 0 0 2.19151,-2.19041 2.1911321,2.1911321 0 0 0 -2.19151,-2.19153 2.1911321,2.1911321 0 0 0 -0.8788216,0.1869 2.1911321,2.1911321 0 0 0 0.8788216,-1.75184 2.1911321,2.1911321 0 0 0 -2.1909846,-2.1915 z"
       style="display:inline;opacity:1;fill:#ffffff;fill-opacity:0.49803922;fill-rule:nonzero;stroke:none;stroke-width:0.59403473;stroke-linecap:round;stroke-linejoin:miter;stroke-miterlimit:4;stroke-dasharray:none;stroke-opacity:1;paint-order:markers stroke fill" />
  </g>
</svg>
