<?xml version="1.0" encoding="UTF-8" standalone="no"?>
<!-- Created with Inkscape (http://www.inkscape.org/) -->

<svg
   xmlns:dc="http://purl.org/dc/elements/1.1/"
   xmlns:cc="http://creativecommons.org/ns#"
   xmlns:rdf="http://www.w3.org/1999/02/22-rdf-syntax-ns#"
   xmlns:svg="http://www.w3.org/2000/svg"
   xmlns="http://www.w3.org/2000/svg"
   xmlns:xlink="http://www.w3.org/1999/xlink"
   xmlns:sodipodi="http://sodipodi.sourceforge.net/DTD/sodipodi-0.dtd"
   xmlns:inkscape="http://www.inkscape.org/namespaces/inkscape"
   width="60"
   height="90"
   viewBox="0 0 15.875 23.8125"
   version="1.1"
   id="svg8"
   sodipodi:docname="clubs_A.svg"
   inkscape:version="0.92.4 (5da689c313, 2019-01-14)">
  <defs
     id="defs2" />
  <sodipodi:namedview
     id="base"
     pagecolor="#ffffff"
     bordercolor="#666666"
     borderopacity="1.0"
     inkscape:pageopacity="0.0"
     inkscape:pageshadow="2"
     inkscape:zoom="5.6568543"
     inkscape:cx="-4.7839292"
     inkscape:cy="72.353638"
     inkscape:document-units="px"
     inkscape:current-layer="layer1"
     showgrid="false"
     units="px"
     inkscape:window-width="1920"
     inkscape:window-height="1137"
     inkscape:window-x="1272"
     inkscape:window-y="-8"
     inkscape:window-maximized="1"
     showguides="false"
     inkscape:snap-bbox="true"
     inkscape:bbox-nodes="true"
     inkscape:snap-bbox-edge-midpoints="true"
     inkscape:snap-bbox-midpoints="true" />
  <metadata
     id="metadata5">
    <rdf:RDF>
      <cc:Work
         rdf:about="">
        <dc:format>image/svg+xml</dc:format>
        <dc:type
           rdf:resource="http://purl.org/dc/dcmitype/StillImage" />
        <dc:title></dc:title>
      </cc:Work>
    </rdf:RDF>
  </metadata>
  <g
     inkscape:label="playing card"
     id="layer1"
     transform="translate(0,-273.1875)">
    <path
       inkscape:label="suit"
       inkscape:connector-curvature="0"
       id="suit"
       d="m 7.9374914,280.33134 a 2.1911321,2.1911321 0 0 0 -2.1915122,2.19153 2.1911321,2.1911321 0 0 0 0.875129,1.74812 2.1911321,2.1911321 0 0 0 -0.875129,-0.1833 2.1911321,2.1911321 0 0 0 -2.1909816,2.19153 2.1911321,2.1911321 0 0 0 2.1909816,2.19041 2.1911321,2.1911321 0 0 0 1.4082267,-0.51249 l -0.065431,0.4671 -1.3422469,1.43201 2.1904534,-0.2379 2.1915126,0.2379 -1.3707496,-1.47104 -0.06123,-0.4518 a 2.1911321,2.1911321 0 0 0 1.4319776,0.53622 2.1911321,2.1911321 0 0 0 2.19151,-2.19041 2.1911321,2.1911321 0 0 0 -2.19151,-2.19153 2.1911321,2.1911321 0 0 0 -0.8788216,0.1869 2.1911321,2.1911321 0 0 0 0.8788216,-1.75184 2.1911321,2.1911321 0 0 0 -2.1909846,-2.1915 z"
       style="display:inline;opacity:1;fill:#000000;fill-opacity:1;fill-rule:nonzero;stroke:none;stroke-width:0.59403473;stroke-linecap:round;stroke-linejoin:miter;stroke-miterlimit:4;stroke-dasharray:none;stroke-opacity:1;paint-order:markers stroke fill" />
    <text
       xml:space="preserve"
       style="font-style:normal;font-variant:normal;font-weight:normal;font-stretch:normal;font-size:4.43547058px;line-height:1.25;font-family:Arial;-inkscape-font-specification:Arial;text-align:center;letter-spacing:0px;word-spacing:0px;text-anchor:middle;display:inline;fill:#000000;fill-opacity:1;stroke:none;stroke-width:0.19418664"
       x="2.5501692"
       y="277.48111"
       id="value"
       inkscape:label="value"><tspan
         sodipodi:role="line"
         id="tspan927"
         x="2.5501692"
         y="277.48111"
         style="font-style:normal;font-variant:normal;font-weight:normal;font-stretch:normal;font-family:Arial;-inkscape-font-specification:Arial;text-align:center;text-anchor:middle;stroke-width:0.19418664">A</tspan></text>
    <use
       x="0"
       y="0"
       xlink:href="#value"
       id="use_value_0"
       width="100%"
       height="100%"
       transform="rotate(-180,7.9375001,285.09375)"
       inkscape:label="value clone" />
    <use
       x="0"
       y="0"
       xlink:href="#suit"
       id="use_suit_0"
       width="100%"
       height="100%"
       transform="matrix(0.33333333,0,0,0.33333333,10.523063,180.86235)"
       style="stroke-width:3"
       inkscape:label="suit clone" />
    <use
       inkscape:label="suit clone"
       style="stroke-width:3"
       transform="matrix(-0.33333333,0,0,-0.33333333,5.3519371,389.32515)"
       height="100%"
       width="100%"
       id="use_suit_1"
       xlink:href="#suit"
       y="0"
       x="0" />
  </g>
</svg>
